<svg width="22" height="22" viewBox="0 0 22 22" fill="none" xmlns="http://www.w3.org/2000/svg">
<path fill-rule="evenodd" clip-rule="evenodd" d="M11 20C15.9706 20 20 15.9706 20 11C20 6.02944 15.9706 2 11 2C6.02944 2 2 6.02944 2 11C2 15.9706 6.02944 20 11 20ZM5.48076 10.1374C5.62376 9.63687 6.13409 8.69246 6.73227 7.85256C7.02684 7.43895 7.32584 7.0748 7.58871 6.81988C7.7206 6.69197 7.83195 6.60282 7.91911 6.54863C7.97677 6.51277 8.00751 6.50242 8.01504 6.49989C8.01629 6.49946 8.0169 6.49926 8.01688 6.49919C8.01687 6.49912 8.01629 6.49918 8.01516 6.49928C8.01269 6.49952 8.00759 6.5 8 6.5V5.5C7.76337 5.5 7.55125 5.5998 7.39105 5.69942C7.2217 5.80473 7.05335 5.94605 6.89254 6.102C6.57 6.41479 6.2315 6.83188 5.91773 7.27244C5.29924 8.14087 4.70957 9.19647 4.51924 9.86264L5.48076 10.1374Z" fill="#F05A28"/>
</svg>
