<svg width="28" height="28" viewBox="0 0 28 28" fill="none" xmlns="http://www.w3.org/2000/svg">
<g id="Group">
<path id="Vector" d="M28 14.0005C28 21.0714 22.7586 26.917 15.9497 27.8656C15.313 27.9539 14.6617 28 14.0005 28C13.2373 28 12.4878 27.9392 11.758 27.8215C5.09127 26.7483 0 20.9684 0 14.0005C0 6.26844 6.26844 0 13.9995 0C21.7306 0 28 6.26844 28 14.0005Z" fill="#1877F2"/>
<path id="Vector_2" d="M15.9497 11.241V14.2909H19.7225L19.1251 18.3992H15.9497V27.8646C15.313 27.9529 14.6617 27.999 14.0005 27.999C13.2373 27.999 12.4878 27.9382 11.758 27.8205V18.3992H8.27844V14.2909H11.758V10.5592C11.758 8.24413 13.6346 6.36655 15.9507 6.36655V6.36851C15.9575 6.36851 15.9634 6.36655 15.9703 6.36655H19.7235V9.91964H17.2711C16.5422 9.91964 15.9507 10.5112 15.9507 11.24L15.9497 11.241Z" fill="white"/>
</g>
</svg>
