<svg width="28" height="28" viewBox="0 0 28 28" fill="none" xmlns="http://www.w3.org/2000/svg">
<path d="M14.0319 0H13.9681C6.25374 0 0 6.25374 0 13.9681V14.0319C0 21.7463 6.25374 28 13.9681 28H14.0319C21.7463 28 28 21.7463 28 14.0319V13.9681C28 6.25374 21.7463 0 14.0319 0Z" fill="url(#paint0_linear_1025_5998)"/>
<path d="M18.5494 5H9.52261C7.02879 5 5 7.02879 5 9.52261V17.7809C5 20.2747 7.02879 22.3035 9.52261 22.3035H18.5494C21.0433 22.3035 23.0721 20.2747 23.0721 17.7809V9.52261C23.0721 7.02879 21.0433 5 18.5494 5ZM6.59544 9.52261C6.59544 7.90878 7.90878 6.59544 9.52261 6.59544H18.5494C20.1633 6.59544 21.4766 7.90878 21.4766 9.52261V17.7809C21.4766 19.3947 20.1633 20.708 18.5494 20.708H9.52261C7.90878 20.708 6.59544 19.3947 6.59544 17.7809V9.52261Z" fill="white"/>
<path d="M14.036 17.8575C16.3551 17.8575 18.2428 15.9708 18.2428 13.6507C18.2428 11.3307 16.3561 9.44394 14.036 9.44394C11.7159 9.44394 9.82922 11.3307 9.82922 13.6507C9.82922 15.9708 11.7159 17.8575 14.036 17.8575ZM14.036 11.0404C15.4761 11.0404 16.6474 12.2117 16.6474 13.6518C16.6474 15.0918 15.4761 16.2631 14.036 16.2631C12.5959 16.2631 11.4247 15.0918 11.4247 13.6518C11.4247 12.2117 12.5959 11.0404 14.036 11.0404Z" fill="white"/>
<path d="M18.6322 10.1236C19.2567 10.1236 19.7657 9.61562 19.7657 8.99012C19.7657 8.36462 19.2577 7.85666 18.6322 7.85666C18.0067 7.85666 17.4988 8.36462 17.4988 8.99012C17.4988 9.61562 18.0067 10.1236 18.6322 10.1236Z" fill="white"/>
<defs>
<linearGradient id="paint0_linear_1025_5998" x1="4.09067" y1="23.9093" x2="23.9093" y2="4.09165" gradientUnits="userSpaceOnUse">
<stop stop-color="#FAAD4F"/>
<stop offset="0.35" stop-color="#DD2A7B"/>
<stop offset="0.62" stop-color="#9537B0"/>
<stop offset="1" stop-color="#515BD4"/>
</linearGradient>
</defs>
</svg>
