<svg width="22" height="22" viewBox="0 0 22 22" fill="none" xmlns="http://www.w3.org/2000/svg">
<mask id="mask0_958_1668" style="mask-type:luminance" maskUnits="userSpaceOnUse" x="3" y="0" width="16" height="22">
<path d="M11 20.875C11 20.875 4 12.925 4 7.81429C4 4.05507 7.13833 1 11 1C14.8617 1 18 4.05507 18 7.81429C18 12.925 11 20.875 11 20.875Z" fill="white" stroke="white" stroke-width="1.66667" stroke-linecap="round" stroke-linejoin="round"/>
<path d="M11.0002 10.6536C12.611 10.6536 13.9168 9.38243 13.9168 7.81433C13.9168 6.24624 12.611 4.97505 11.0002 4.97505C9.38933 4.97505 8.0835 6.24624 8.0835 7.81433C8.0835 9.38243 9.38933 10.6536 11.0002 10.6536Z" fill="black"/>
</mask>
<g mask="url(#mask0_958_1668)">
<path d="M25 -2.40718H-3V24.85H25V-2.40718Z" fill="#F05A28"/>
</g>
</svg>
