<svg width="30" height="24" viewBox="0 0 30 24" fill="none" xmlns="http://www.w3.org/2000/svg">
<g id="fa-solid:praying-hands" clip-path="url(#clip0_744_6455)">
<path id="Vector" d="M12.75 8.99582C11.925 8.99582 11.25 9.67082 11.25 10.4958V14.2458C11.25 14.6602 10.9144 14.9958 10.5 14.9958C10.0856 14.9958 9.75 14.6602 9.75 14.2458V10.6575C9.75 9.84238 9.97125 9.04175 10.3917 8.34238L14.0363 2.26785C14.4623 1.55722 14.2327 0.636128 13.522 0.209565C12.8447 -0.196841 11.9883 0.00800276 11.5392 0.641284C11.5298 0.652065 11.5102 0.651128 11.5022 0.663784L6.00562 8.9091C5.51062 9.6516 5.25 10.5146 5.25 11.4043V15.165L1.02563 16.5732C0.726907 16.6725 0.467064 16.8634 0.282965 17.1188C0.0988667 17.3742 -0.000137719 17.681 1.43785e-07 17.9958V22.4958C1.43785e-07 23.003 0.399375 23.9958 1.5 23.9958C1.62609 23.9958 1.75359 23.9799 1.87781 23.9475L10.2773 21.7622C12.6169 21.0933 14.25 18.9282 14.25 16.4958V10.4958C14.25 9.67082 13.575 8.99582 12.75 8.99582ZM28.9744 16.5769L24.75 15.1688V11.408C24.75 10.5183 24.4894 9.65535 23.9944 8.91285L18.4978 0.668003C18.4894 0.655346 18.4702 0.656753 18.4608 0.645503C18.0117 0.0122215 17.1553 -0.192622 16.478 0.213784C15.7673 0.639878 15.5377 1.56144 15.9637 2.27207L19.6083 8.3466C20.0288 9.04597 20.25 9.8466 20.25 10.6618V14.25C20.25 14.6644 19.9144 15 19.5 15C19.0856 15 18.75 14.6644 18.75 14.25V10.5C18.75 9.67503 18.075 9.00003 17.25 9.00003C16.425 9.00003 15.75 9.67503 15.75 10.5V16.5C15.75 18.9324 17.3831 21.0975 19.7227 21.766L28.1222 23.9513C28.2469 23.9836 28.3744 23.9996 28.5 23.9996C29.6006 23.9996 30 23.0068 30 22.4996V17.9996C30 17.3541 29.587 16.7813 28.9744 16.5769Z" fill="white"/>
</g>
<defs>
<clipPath id="clip0_744_6455">
<rect width="30" height="24" fill="white"/>
</clipPath>
</defs>
</svg>
