<svg width="26" height="24" viewBox="0 0 26 24" fill="none" xmlns="http://www.w3.org/2000/svg">
<path d="M26 15.5695C26 17.8015 25.156 23.5442 20.5899 23.5442C16.2378 23.5442 14.6518 19.4311 14.9528 17.9438C15.2028 18.3996 15.9958 20.744 20.2769 20.744C24.668 20.744 24.715 15.5235 24.715 15.5235C24.715 15.5235 24.641 11.8213 21.9649 11.8213C18.6989 11.8213 18.5899 17.3746 15.3088 17.3746C13.6638 17.3746 13.1128 16.4437 12.7808 16.188C13.4878 18.5377 12.6518 24 7.27667 24C-0.395465 24 0.00354175 15.1436 0.00354175 15.1436C0.00354175 15.1436 1.28856 20.6017 7.14367 20.6017C10.7137 20.6017 11.1837 18.42 11.1837 17.4217C11.1837 16.4266 10.4727 14.6718 7.27667 14.6718L6.57766 11.1226C6.57766 11.1226 7.52267 11.4522 8.69069 11.4522C10.2307 11.4522 10.5817 10.3533 10.5817 9.45127C10.5817 8.55247 9.75771 7.64084 8.24969 7.64084C5.91365 7.64084 4.03961 10.2067 4.03961 10.2067L2.22258 6.6008C2.22258 6.6008 3.90961 4.27142 7.32767 4.27142C10.7417 4.27142 12.2928 7.2642 12.2928 9.02006C12.2928 10.7759 11.5267 12.2301 10.0737 13.0539C12.0348 14.0394 11.4407 14.7627 12.6908 14.7627C14.7608 14.7627 15.0428 12.9534 16.0158 11.3109C16.9138 9.80223 18.1909 8.45189 20.4529 8.45189C24.98 8.45189 26 13.3418 26 15.5695ZM17.1718 7.92974C19.4719 7.92974 21.2539 6.50343 21.2539 6.50343L19.3439 2.89755C19.3439 2.89755 18.0159 4.88988 15.4398 4.88988C12.8658 4.88988 10.7367 2.37325 10.7367 2.37325C10.7367 2.37325 11.7137 7.9276 17.1708 7.9276L17.1718 7.92974ZM17.5269 2.186L15.6168 0L13.4878 1.99447L15.3978 4.32171L17.5269 2.186Z" fill="white"/>
</svg>
