<svg width="24" height="22" viewBox="0 0 24 22" fill="none" xmlns="http://www.w3.org/2000/svg">
<path d="M0.594118 4.47549C0.270588 4.47549 0.00588226 4.23284 0 3.93627V0.544608C0 0.242647 0.264706 0 0.594118 0H4.29412C4.61765 0 4.88235 0.242647 4.88235 0.544608V1.72549H19.1176V0.544608C19.1176 0.248039 19.3824 0.00539216 19.7059 0H23.4059C23.7294 0 23.9941 0.242647 24 0.544608V3.93627C24 4.23284 23.7353 4.47549 23.4059 4.47549H22.1176V17.5245H23.4059C23.7294 17.5245 23.9941 17.7672 24 18.0637V21.4554C24 21.752 23.7353 21.9946 23.4059 22H19.7059C19.3824 22 19.1176 21.7574 19.1176 21.4554V20.2745H4.88235V21.4554C4.88235 21.752 4.61765 21.9946 4.29412 22H0.594118C0.270588 22 0.00588226 21.7574 0 21.4554V18.0637C0 17.7672 0.264706 17.5245 0.594118 17.5245H1.88235V4.47549H0.594118ZM22.8235 3.39706V1.07843H20.2941V3.39706H22.8235ZM20.2941 20.9216H22.8235V18.6029H20.2941V20.9216ZM4.88235 18.0637V19.1961H19.1176V18.0637C19.1176 17.7672 19.3824 17.5245 19.7059 17.5245H20.9412V4.47549H19.7059C19.3824 4.47549 19.1176 4.23284 19.1176 3.93627V2.80392H4.88235V3.93627C4.88235 4.23284 4.61765 4.47549 4.29412 4.47549H3.05882V17.5245H4.29412C4.61765 17.5245 4.88235 17.7672 4.88235 18.0637ZM1.17647 18.6029V20.9216H3.70588V18.6029H1.17647ZM3.70588 3.39706V1.07843H1.17647V3.39706H3.70588Z" fill="white"/>
</svg>
