<svg width="18" height="18" viewBox="0 0 18 18" fill="none" xmlns="http://www.w3.org/2000/svg">
<path d="M8.1 14H4.5C3.255 14 2.1939 13.5611 1.3167 12.6833C0.439501 11.8055 0.000600614 10.7444 6.14334e-07 9.5C-0.000599386 8.2556 0.438301 7.1945 1.3167 6.3167C2.1951 5.4389 3.2562 5 4.5 5H8.1V6.8H4.5C3.75 6.8 3.1125 7.0625 2.5875 7.5875C2.0625 8.1125 1.8 8.75 1.8 9.5C1.8 10.25 2.0625 10.8875 2.5875 11.4125C3.1125 11.9375 3.75 12.2 4.5 12.2H8.1V14ZM5.4 10.4V8.6H12.6V10.4H5.4ZM9.9 14V12.2H13.5C14.25 12.2 14.8875 11.9375 15.4125 11.4125C15.9375 10.8875 16.2 10.25 16.2 9.5C16.2 8.75 15.9375 8.1125 15.4125 7.5875C14.8875 7.0625 14.25 6.8 13.5 6.8H9.9V5H13.5C14.745 5 15.8064 5.4389 16.6842 6.3167C17.562 7.1945 18.0006 8.2556 18 9.5C17.9994 10.7444 17.5605 11.8058 16.6833 12.6842C15.8061 13.5626 14.745 14.0012 13.5 14H9.9Z" fill="#2C2727"/>
</svg>
