<svg width="18" height="18" viewBox="0 0 18 18" fill="none" xmlns="http://www.w3.org/2000/svg">
<path d="M14.8749 3.09155C14.1108 2.31997 13.2008 1.70819 12.1978 1.29185C11.1949 0.875514 10.1192 0.662951 9.03325 0.666549C4.48325 0.666549 0.774919 4.37488 0.774919 8.92488C0.774919 10.3832 1.15825 11.7999 1.87492 13.0499L0.708252 17.3332L5.08325 16.1832C6.29159 16.8415 7.64992 17.1915 9.03325 17.1915C13.5833 17.1915 17.2916 13.4832 17.2916 8.93322C17.2916 6.72488 16.4333 4.64988 14.8749 3.09155ZM9.03325 15.7915C7.79992 15.7915 6.59159 15.4582 5.53325 14.8332L5.28325 14.6832L2.68325 15.3665L3.37492 12.8332L3.20825 12.5749C2.52288 11.4808 2.15902 10.2159 2.15825 8.92488C2.15825 5.14155 5.24158 2.05822 9.02492 2.05822C10.8583 2.05822 12.5833 2.77488 13.8749 4.07488C14.5146 4.71143 15.0215 5.46867 15.3663 6.30266C15.711 7.13664 15.8868 8.03079 15.8833 8.93322C15.8999 12.7165 12.8166 15.7915 9.03325 15.7915ZM12.7999 10.6582C12.5916 10.5582 11.5749 10.0582 11.3916 9.98322C11.1999 9.91655 11.0666 9.88321 10.9249 10.0832C10.7833 10.2915 10.3916 10.7582 10.2749 10.8915C10.1583 11.0332 10.0333 11.0499 9.82492 10.9415C9.61658 10.8415 8.94992 10.6165 8.16658 9.91655C7.54992 9.36655 7.14158 8.69155 7.01658 8.48322C6.89992 8.27488 6.99992 8.16655 7.10825 8.05822C7.19992 7.96655 7.31659 7.81655 7.41659 7.69988C7.51659 7.58321 7.55825 7.49155 7.62492 7.35821C7.69159 7.21655 7.65825 7.09988 7.60825 6.99988C7.55825 6.89988 7.14158 5.88321 6.97492 5.46655C6.80825 5.06655 6.63325 5.11655 6.50825 5.10821H6.10825C5.96658 5.10821 5.74992 5.15821 5.55825 5.36655C5.37492 5.57488 4.84159 6.07488 4.84159 7.09155C4.84159 8.10822 5.58325 9.09155 5.68325 9.22488C5.78325 9.36655 7.14159 11.4499 9.20825 12.3415C9.69992 12.5582 10.0833 12.6832 10.3833 12.7749C10.8749 12.9332 11.3249 12.9082 11.6833 12.8582C12.0833 12.7999 12.9083 12.3582 13.0749 11.8749C13.2499 11.3915 13.2499 10.9832 13.1916 10.8915C13.1333 10.7999 13.0083 10.7582 12.7999 10.6582Z" fill="#26FF71"/>
</svg>
