<svg width="325" height="27" viewBox="0 0 325 27" fill="none" xmlns="http://www.w3.org/2000/svg">
<path d="M18.1399 18.8183L12.0048 12.3984L5.86977 18.8183L4.5 17.3872L10.6447 10.9774L4.5 4.56759L5.86977 3.13647L12.0048 9.55634L18.1399 3.14655L19.5 4.56759L13.365 10.9774L19.5 17.3872L18.1399 18.8183Z" fill="#D14343"/>
<path d="M35.6705 6.90909V20H34.0852V6.90909H35.6705ZM40.1529 14.0938V20H38.6444V10.1818H40.1017V11.7159H40.2296C40.4597 11.2173 40.8091 10.8168 41.2779 10.5142C41.7466 10.2074 42.3517 10.054 43.0932 10.054C43.758 10.054 44.3397 10.1903 44.8382 10.4631C45.3368 10.7315 45.7246 11.1406 46.0016 11.6903C46.2786 12.2358 46.4171 12.9261 46.4171 13.7614V20H44.9086V13.8636C44.9086 13.0923 44.7083 12.4915 44.3077 12.0611C43.9071 11.6264 43.3574 11.4091 42.6586 11.4091C42.177 11.4091 41.7466 11.5135 41.3674 11.7223C40.9924 11.9311 40.6962 12.2358 40.4789 12.6364C40.2615 13.0369 40.1529 13.5227 40.1529 14.0938ZM53.4435 10.1818V11.4602H48.3555V10.1818H53.4435ZM49.8384 7.82955H51.3469V17.1875C51.3469 17.6136 51.4087 17.9332 51.5323 18.1463C51.6602 18.3551 51.8221 18.4957 52.0181 18.5682C52.2184 18.6364 52.4293 18.6705 52.6509 18.6705C52.8171 18.6705 52.9535 18.6619 53.06 18.6449C53.1665 18.6236 53.2518 18.6065 53.3157 18.5938L53.6225 19.9489C53.5202 19.9872 53.3775 20.0256 53.1942 20.0639C53.011 20.1065 52.7788 20.1278 52.4975 20.1278C52.0714 20.1278 51.6538 20.0362 51.2447 19.853C50.8398 19.6697 50.5032 19.3906 50.2347 19.0156C49.9705 18.6406 49.8384 18.1676 49.8384 17.5966V7.82955ZM59.7237 20.2045C58.7777 20.2045 57.9616 19.9957 57.2756 19.5781C56.5938 19.1562 56.0675 18.5682 55.6967 17.8139C55.3303 17.0554 55.147 16.1733 55.147 15.1676C55.147 14.1619 55.3303 13.2756 55.6967 12.5085C56.0675 11.7372 56.5831 11.1364 57.2436 10.706C57.9084 10.2713 58.6839 10.054 59.5703 10.054C60.0817 10.054 60.5866 10.1392 61.0852 10.3097C61.5838 10.4801 62.0376 10.7571 62.4467 11.1406C62.8558 11.5199 63.1818 12.0227 63.4247 12.6491C63.6676 13.2756 63.7891 14.0469 63.7891 14.9631V15.6023H56.2209V14.2983H62.255C62.255 13.7443 62.1442 13.25 61.9226 12.8153C61.7053 12.3807 61.3942 12.0376 60.9893 11.7862C60.5888 11.5348 60.1158 11.4091 59.5703 11.4091C58.9695 11.4091 58.4496 11.5582 58.0107 11.8565C57.576 12.1506 57.2415 12.5341 57.0071 13.0071C56.7727 13.4801 56.6555 13.9872 56.6555 14.5284V15.3977C56.6555 16.1392 56.7834 16.7678 57.0391 17.2834C57.299 17.7947 57.6591 18.1847 58.1193 18.4531C58.5795 18.7173 59.1143 18.8494 59.7237 18.8494C60.12 18.8494 60.478 18.794 60.7976 18.6832C61.1214 18.5682 61.4006 18.3977 61.6349 18.1719C61.8693 17.9418 62.0504 17.6562 62.1783 17.3153L63.6357 17.7244C63.4822 18.2188 63.2244 18.6534 62.8622 19.0284C62.5 19.3991 62.0526 19.6889 61.5199 19.8977C60.9872 20.1023 60.3885 20.2045 59.7237 20.2045ZM66.0838 20V10.1818H67.5412V11.6648H67.6435C67.8224 11.179 68.1463 10.7848 68.6151 10.4822C69.0838 10.1797 69.6122 10.0284 70.2003 10.0284C70.3111 10.0284 70.4496 10.0305 70.6158 10.0348C70.782 10.0391 70.9077 10.0455 70.9929 10.054V11.5881C70.9418 11.5753 70.8246 11.5561 70.6413 11.5305C70.4624 11.5007 70.2727 11.4858 70.0724 11.4858C69.5952 11.4858 69.169 11.5859 68.794 11.7862C68.4233 11.9822 68.1293 12.255 67.9119 12.6044C67.6989 12.9496 67.5923 13.3437 67.5923 13.7869V20H66.0838ZM74.2896 14.0938V20H72.7811V10.1818H74.2385V11.7159H74.3663C74.5964 11.2173 74.9458 10.8168 75.4146 10.5142C75.8833 10.2074 76.4885 10.054 77.2299 10.054C77.8947 10.054 78.4764 10.1903 78.975 10.4631C79.4735 10.7315 79.8613 11.1406 80.1383 11.6903C80.4153 12.2358 80.5538 12.9261 80.5538 13.7614V20H79.0453V13.8636C79.0453 13.0923 78.845 12.4915 78.4444 12.0611C78.0439 11.6264 77.4941 11.4091 76.7953 11.4091C76.3137 11.4091 75.8833 11.5135 75.5041 11.7223C75.1291 11.9311 74.8329 12.2358 74.6156 12.6364C74.3983 13.0369 74.2896 13.5227 74.2896 14.0938ZM86.1996 20.2301C85.5774 20.2301 85.0128 20.1129 84.5057 19.8786C83.9986 19.6399 83.5959 19.2969 83.2976 18.8494C82.9993 18.3977 82.8501 17.8523 82.8501 17.2131C82.8501 16.6506 82.9609 16.1946 83.1825 15.8452C83.4041 15.4915 83.7003 15.2145 84.071 15.0142C84.4418 14.8139 84.8509 14.6648 85.2983 14.5668C85.75 14.4645 86.2038 14.3835 86.6598 14.3239C87.2564 14.2472 87.7401 14.1896 88.1108 14.1513C88.4858 14.1087 88.7585 14.0384 88.929 13.9403C89.1037 13.8423 89.1911 13.6719 89.1911 13.429V13.3778C89.1911 12.7472 89.0185 12.2571 88.6733 11.9077C88.3324 11.5582 87.8146 11.3835 87.12 11.3835C86.3999 11.3835 85.8352 11.5412 85.4261 11.8565C85.017 12.1719 84.7294 12.5085 84.5632 12.8665L83.1314 12.3551C83.3871 11.7585 83.728 11.294 84.1541 10.9616C84.5845 10.625 85.0533 10.3906 85.5604 10.2585C86.0717 10.1222 86.5746 10.054 87.0689 10.054C87.3842 10.054 87.7464 10.0923 88.1555 10.169C88.5689 10.2415 88.9673 10.3928 89.3509 10.6229C89.7386 10.853 90.0604 11.2003 90.3161 11.6648C90.5717 12.1293 90.6996 12.7514 90.6996 13.5312V20H89.1911V18.6705H89.1143C89.0121 18.8835 88.8416 19.1115 88.603 19.3544C88.3643 19.5973 88.0469 19.804 87.6506 19.9744C87.2543 20.1449 86.7706 20.2301 86.1996 20.2301ZM86.4297 18.875C87.0263 18.875 87.5291 18.7578 87.9382 18.5234C88.3516 18.2891 88.6626 17.9865 88.8714 17.6158C89.0845 17.245 89.1911 16.8551 89.1911 16.446V15.0653C89.1271 15.142 88.9865 15.2124 88.7692 15.2763C88.5561 15.3359 88.3089 15.3892 88.0277 15.4361C87.7507 15.4787 87.4801 15.517 87.2159 15.5511C86.956 15.581 86.745 15.6065 86.5831 15.6278C86.1911 15.679 85.8246 15.7621 85.4837 15.8771C85.147 15.9879 84.8743 16.1562 84.6655 16.3821C84.4609 16.6037 84.3587 16.9062 84.3587 17.2898C84.3587 17.8139 84.5526 18.2102 84.9403 18.4787C85.3324 18.7429 85.8288 18.875 86.4297 18.875ZM97.7228 10.1818V11.4602H92.6348V10.1818H97.7228ZM94.1177 7.82955H95.6262V17.1875C95.6262 17.6136 95.688 17.9332 95.8116 18.1463C95.9395 18.3551 96.1014 18.4957 96.2974 18.5682C96.4977 18.6364 96.7086 18.6705 96.9302 18.6705C97.0964 18.6705 97.2328 18.6619 97.3393 18.6449C97.4458 18.6236 97.5311 18.6065 97.595 18.5938L97.9018 19.9489C97.7995 19.9872 97.6568 20.0256 97.4735 20.0639C97.2903 20.1065 97.0581 20.1278 96.7768 20.1278C96.3507 20.1278 95.9331 20.0362 95.524 19.853C95.1191 19.6697 94.7825 19.3906 94.514 19.0156C94.2498 18.6406 94.1177 18.1676 94.1177 17.5966V7.82955ZM99.992 20V10.1818H101.501V20H99.992ZM100.759 8.54545C100.465 8.54545 100.211 8.44531 99.9984 8.24503C99.7896 8.04474 99.6852 7.80398 99.6852 7.52273C99.6852 7.24148 99.7896 7.00071 99.9984 6.80043C100.211 6.60014 100.465 6.5 100.759 6.5C101.053 6.5 101.305 6.60014 101.513 6.80043C101.726 7.00071 101.833 7.24148 101.833 7.52273C101.833 7.80398 101.726 8.04474 101.513 8.24503C101.305 8.44531 101.053 8.54545 100.759 8.54545ZM108.252 20.2045C107.366 20.2045 106.588 19.9936 105.919 19.5717C105.254 19.1499 104.734 18.5597 104.359 17.8011C103.989 17.0426 103.803 16.1562 103.803 15.142C103.803 14.1193 103.989 13.2266 104.359 12.4638C104.734 11.701 105.254 11.1087 105.919 10.6868C106.588 10.2649 107.366 10.054 108.252 10.054C109.138 10.054 109.914 10.2649 110.579 10.6868C111.248 11.1087 111.768 11.701 112.138 12.4638C112.513 13.2266 112.701 14.1193 112.701 15.142C112.701 16.1562 112.513 17.0426 112.138 17.8011C111.768 18.5597 111.248 19.1499 110.579 19.5717C109.914 19.9936 109.138 20.2045 108.252 20.2045ZM108.252 18.8494C108.925 18.8494 109.479 18.6768 109.914 18.3317C110.349 17.9865 110.67 17.5327 110.879 16.9702C111.088 16.4077 111.192 15.7983 111.192 15.142C111.192 14.4858 111.088 13.8743 110.879 13.3075C110.67 12.7408 110.349 12.2827 109.914 11.9332C109.479 11.5838 108.925 11.4091 108.252 11.4091C107.579 11.4091 107.025 11.5838 106.59 11.9332C106.156 12.2827 105.834 12.7408 105.625 13.3075C105.416 13.8743 105.312 14.4858 105.312 15.142C105.312 15.7983 105.416 16.4077 105.625 16.9702C105.834 17.5327 106.156 17.9865 106.59 18.3317C107.025 18.6768 107.579 18.8494 108.252 18.8494ZM116.512 14.0938V20H115.004V10.1818H116.461V11.7159H116.589C116.819 11.2173 117.169 10.8168 117.637 10.5142C118.106 10.2074 118.711 10.054 119.453 10.054C120.117 10.054 120.699 10.1903 121.198 10.4631C121.696 10.7315 122.084 11.1406 122.361 11.6903C122.638 12.2358 122.776 12.9261 122.776 13.7614V20H121.268V13.8636C121.268 13.0923 121.068 12.4915 120.667 12.0611C120.267 11.6264 119.717 11.4091 119.018 11.4091C118.536 11.4091 118.106 11.5135 117.727 11.7223C117.352 11.9311 117.056 12.2358 116.838 12.6364C116.621 13.0369 116.512 13.5227 116.512 14.0938ZM128.422 20.2301C127.8 20.2301 127.235 20.1129 126.728 19.8786C126.221 19.6399 125.819 19.2969 125.52 18.8494C125.222 18.3977 125.073 17.8523 125.073 17.2131C125.073 16.6506 125.184 16.1946 125.405 15.8452C125.627 15.4915 125.923 15.2145 126.294 15.0142C126.664 14.8139 127.074 14.6648 127.521 14.5668C127.973 14.4645 128.426 14.3835 128.882 14.3239C129.479 14.2472 129.963 14.1896 130.333 14.1513C130.708 14.1087 130.981 14.0384 131.152 13.9403C131.326 13.8423 131.414 13.6719 131.414 13.429V13.3778C131.414 12.7472 131.241 12.2571 130.896 11.9077C130.555 11.5582 130.037 11.3835 129.343 11.3835C128.623 11.3835 128.058 11.5412 127.649 11.8565C127.24 12.1719 126.952 12.5085 126.786 12.8665L125.354 12.3551C125.61 11.7585 125.951 11.294 126.377 10.9616C126.807 10.625 127.276 10.3906 127.783 10.2585C128.294 10.1222 128.797 10.054 129.292 10.054C129.607 10.054 129.969 10.0923 130.378 10.169C130.792 10.2415 131.19 10.3928 131.574 10.6229C131.961 10.853 132.283 11.2003 132.539 11.6648C132.794 12.1293 132.922 12.7514 132.922 13.5312V20H131.414V18.6705H131.337C131.235 18.8835 131.064 19.1115 130.826 19.3544C130.587 19.5973 130.27 19.804 129.873 19.9744C129.477 20.1449 128.993 20.2301 128.422 20.2301ZM128.652 18.875C129.249 18.875 129.752 18.7578 130.161 18.5234C130.574 18.2891 130.885 17.9865 131.094 17.6158C131.307 17.245 131.414 16.8551 131.414 16.446V15.0653C131.35 15.142 131.209 15.2124 130.992 15.2763C130.779 15.3359 130.532 15.3892 130.25 15.4361C129.973 15.4787 129.703 15.517 129.439 15.5511C129.179 15.581 128.968 15.6065 128.806 15.6278C128.414 15.679 128.047 15.7621 127.706 15.8771C127.37 15.9879 127.097 16.1562 126.888 16.3821C126.684 16.6037 126.581 16.9062 126.581 17.2898C126.581 17.8139 126.775 18.2102 127.163 18.4787C127.555 18.7429 128.051 18.875 128.652 18.875ZM137.184 6.90909V20H135.676V6.90909H137.184ZM147.899 20.2301C147.277 20.2301 146.712 20.1129 146.205 19.8786C145.698 19.6399 145.295 19.2969 144.997 18.8494C144.699 18.3977 144.549 17.8523 144.549 17.2131C144.549 16.6506 144.66 16.1946 144.882 15.8452C145.103 15.4915 145.4 15.2145 145.77 15.0142C146.141 14.8139 146.55 14.6648 146.998 14.5668C147.449 14.4645 147.903 14.3835 148.359 14.3239C148.956 14.2472 149.439 14.1896 149.81 14.1513C150.185 14.1087 150.458 14.0384 150.628 13.9403C150.803 13.8423 150.89 13.6719 150.89 13.429V13.3778C150.89 12.7472 150.718 12.2571 150.373 11.9077C150.032 11.5582 149.514 11.3835 148.819 11.3835C148.099 11.3835 147.534 11.5412 147.125 11.8565C146.716 12.1719 146.429 12.5085 146.262 12.8665L144.831 12.3551C145.086 11.7585 145.427 11.294 145.853 10.9616C146.284 10.625 146.752 10.3906 147.26 10.2585C147.771 10.1222 148.274 10.054 148.768 10.054C149.083 10.054 149.446 10.0923 149.855 10.169C150.268 10.2415 150.667 10.3928 151.05 10.6229C151.438 10.853 151.76 11.2003 152.015 11.6648C152.271 12.1293 152.399 12.7514 152.399 13.5312V20H150.89V18.6705H150.814C150.711 18.8835 150.541 19.1115 150.302 19.3544C150.064 19.5973 149.746 19.804 149.35 19.9744C148.953 20.1449 148.47 20.2301 147.899 20.2301ZM148.129 18.875C148.725 18.875 149.228 18.7578 149.637 18.5234C150.051 18.2891 150.362 17.9865 150.571 17.6158C150.784 17.245 150.89 16.8551 150.89 16.446V15.0653C150.826 15.142 150.686 15.2124 150.468 15.2763C150.255 15.3359 150.008 15.3892 149.727 15.4361C149.45 15.4787 149.179 15.517 148.915 15.5511C148.655 15.581 148.444 15.6065 148.282 15.6278C147.89 15.679 147.524 15.7621 147.183 15.8771C146.846 15.9879 146.574 16.1562 146.365 16.3821C146.16 16.6037 146.058 16.9062 146.058 17.2898C146.058 17.8139 146.252 18.2102 146.64 18.4787C147.032 18.7429 147.528 18.875 148.129 18.875ZM156.661 14.0938V20H155.152V10.1818H156.61V11.7159H156.737C156.968 11.2173 157.317 10.8168 157.786 10.5142C158.254 10.2074 158.86 10.054 159.601 10.054C160.266 10.054 160.847 10.1903 161.346 10.4631C161.845 10.7315 162.232 11.1406 162.509 11.6903C162.786 12.2358 162.925 12.9261 162.925 13.7614V20H161.416V13.8636C161.416 13.0923 161.216 12.4915 160.816 12.0611C160.415 11.6264 159.865 11.4091 159.166 11.4091C158.685 11.4091 158.254 11.5135 157.875 11.7223C157.5 11.9311 157.204 12.2358 156.987 12.6364C156.769 13.0369 156.661 13.5227 156.661 14.0938ZM169.389 20.2045C168.571 20.2045 167.848 19.9979 167.222 19.5845C166.596 19.1669 166.105 18.5788 165.752 17.8203C165.398 17.0575 165.221 16.1562 165.221 15.1165C165.221 14.0852 165.398 13.1903 165.752 12.4318C166.105 11.6733 166.598 11.0874 167.228 10.674C167.859 10.2607 168.588 10.054 169.414 10.054C170.054 10.054 170.559 10.1605 170.929 10.3736C171.304 10.5824 171.59 10.821 171.786 11.0895C171.986 11.3537 172.142 11.571 172.252 11.7415H172.38V6.90909H173.889V20H172.431V18.4915H172.252C172.142 18.6705 171.984 18.8963 171.779 19.169C171.575 19.4375 171.283 19.6783 170.904 19.8913C170.525 20.1001 170.02 20.2045 169.389 20.2045ZM169.593 18.8494C170.199 18.8494 170.71 18.6918 171.127 18.3764C171.545 18.0568 171.863 17.6158 172.08 17.0533C172.297 16.4865 172.406 15.8324 172.406 15.0909C172.406 14.358 172.299 13.7166 172.086 13.1669C171.873 12.6129 171.558 12.1825 171.14 11.8757C170.723 11.5646 170.207 11.4091 169.593 11.4091C168.954 11.4091 168.422 11.5732 167.995 11.9013C167.574 12.2251 167.256 12.6662 167.043 13.2244C166.834 13.7784 166.73 14.4006 166.73 15.0909C166.73 15.7898 166.836 16.4247 167.049 16.9957C167.267 17.5625 167.586 18.0142 168.008 18.3509C168.434 18.6832 168.963 18.8494 169.593 18.8494ZM185.631 20.2045C184.813 20.2045 184.091 19.9979 183.464 19.5845C182.838 19.1669 182.348 18.5788 181.994 17.8203C181.64 17.0575 181.463 16.1562 181.463 15.1165C181.463 14.0852 181.64 13.1903 181.994 12.4318C182.348 11.6733 182.84 11.0874 183.471 10.674C184.101 10.2607 184.83 10.054 185.657 10.054C186.296 10.054 186.801 10.1605 187.172 10.3736C187.547 10.5824 187.832 10.821 188.028 11.0895C188.228 11.3537 188.384 11.571 188.495 11.7415H188.623V6.90909H190.131V20H188.674V18.4915H188.495C188.384 18.6705 188.226 18.8963 188.022 19.169C187.817 19.4375 187.525 19.6783 187.146 19.8913C186.767 20.1001 186.262 20.2045 185.631 20.2045ZM185.836 18.8494C186.441 18.8494 186.952 18.6918 187.37 18.3764C187.787 18.0568 188.105 17.6158 188.322 17.0533C188.539 16.4865 188.648 15.8324 188.648 15.0909C188.648 14.358 188.542 13.7166 188.328 13.1669C188.115 12.6129 187.8 12.1825 187.382 11.8757C186.965 11.5646 186.449 11.4091 185.836 11.4091C185.196 11.4091 184.664 11.5732 184.238 11.9013C183.816 12.2251 183.498 12.6662 183.285 13.2244C183.076 13.7784 182.972 14.4006 182.972 15.0909C182.972 15.7898 183.078 16.4247 183.292 16.9957C183.509 17.5625 183.828 18.0142 184.25 18.3509C184.676 18.6832 185.205 18.8494 185.836 18.8494ZM197.092 20.2045C196.206 20.2045 195.428 19.9936 194.759 19.5717C194.094 19.1499 193.574 18.5597 193.199 17.8011C192.828 17.0426 192.643 16.1562 192.643 15.142C192.643 14.1193 192.828 13.2266 193.199 12.4638C193.574 11.701 194.094 11.1087 194.759 10.6868C195.428 10.2649 196.206 10.054 197.092 10.054C197.978 10.054 198.754 10.2649 199.419 10.6868C200.088 11.1087 200.608 11.701 200.978 12.4638C201.353 13.2266 201.541 14.1193 201.541 15.142C201.541 16.1562 201.353 17.0426 200.978 17.8011C200.608 18.5597 200.088 19.1499 199.419 19.5717C198.754 19.9936 197.978 20.2045 197.092 20.2045ZM197.092 18.8494C197.765 18.8494 198.319 18.6768 198.754 18.3317C199.189 17.9865 199.51 17.5327 199.719 16.9702C199.928 16.4077 200.032 15.7983 200.032 15.142C200.032 14.4858 199.928 13.8743 199.719 13.3075C199.51 12.7408 199.189 12.2827 198.754 11.9332C198.319 11.5838 197.765 11.4091 197.092 11.4091C196.419 11.4091 195.865 11.5838 195.43 11.9332C194.995 12.2827 194.674 12.7408 194.465 13.3075C194.256 13.8743 194.152 14.4858 194.152 15.142C194.152 15.7983 194.256 16.4077 194.465 16.9702C194.674 17.5327 194.995 17.9865 195.43 18.3317C195.865 18.6768 196.419 18.8494 197.092 18.8494ZM203.844 20V10.1818H205.301V11.7159H205.429C205.633 11.1918 205.964 10.7848 206.42 10.495C206.876 10.201 207.423 10.054 208.062 10.054C208.71 10.054 209.249 10.201 209.68 10.495C210.114 10.7848 210.453 11.1918 210.696 11.7159H210.798C211.05 11.2088 211.427 10.8061 211.93 10.5078C212.432 10.2053 213.035 10.054 213.738 10.054C214.616 10.054 215.334 10.3288 215.893 10.8786C216.451 11.424 216.73 12.2741 216.73 13.429V20H215.221V13.429C215.221 12.7045 215.023 12.1868 214.627 11.8757C214.231 11.5646 213.764 11.4091 213.227 11.4091C212.537 11.4091 212.002 11.6179 211.623 12.0355C211.243 12.4489 211.054 12.973 211.054 13.608V20H209.52V13.2756C209.52 12.7173 209.339 12.2678 208.976 11.9268C208.614 11.5817 208.148 11.4091 207.577 11.4091C207.184 11.4091 206.818 11.5135 206.477 11.7223C206.14 11.9311 205.868 12.2209 205.659 12.5916C205.454 12.9581 205.352 13.3821 205.352 13.8636V20H203.844ZM223.605 20.2045C222.659 20.2045 221.843 19.9957 221.156 19.5781C220.475 19.1562 219.948 18.5682 219.578 17.8139C219.211 17.0554 219.028 16.1733 219.028 15.1676C219.028 14.1619 219.211 13.2756 219.578 12.5085C219.948 11.7372 220.464 11.1364 221.124 10.706C221.789 10.2713 222.565 10.054 223.451 10.054C223.963 10.054 224.468 10.1392 224.966 10.3097C225.465 10.4801 225.919 10.7571 226.328 11.1406C226.737 11.5199 227.063 12.0227 227.306 12.6491C227.548 13.2756 227.67 14.0469 227.67 14.9631V15.6023H220.102V14.2983H226.136C226.136 13.7443 226.025 13.25 225.803 12.8153C225.586 12.3807 225.275 12.0376 224.87 11.7862C224.47 11.5348 223.997 11.4091 223.451 11.4091C222.85 11.4091 222.33 11.5582 221.892 11.8565C221.457 12.1506 221.122 12.5341 220.888 13.0071C220.654 13.4801 220.536 13.9872 220.536 14.5284V15.3977C220.536 16.1392 220.664 16.7678 220.92 17.2834C221.18 17.7947 221.54 18.1847 222 18.4531C222.46 18.7173 222.995 18.8494 223.605 18.8494C224.001 18.8494 224.359 18.794 224.678 18.6832C225.002 18.5682 225.281 18.3977 225.516 18.1719C225.75 17.9418 225.931 17.6562 226.059 17.3153L227.517 17.7244C227.363 18.2188 227.105 18.6534 226.743 19.0284C226.381 19.3991 225.933 19.6889 225.401 19.8977C224.868 20.1023 224.269 20.2045 223.605 20.2045ZM236.919 12.3807L235.564 12.7642C235.479 12.5384 235.353 12.3189 235.187 12.1058C235.025 11.8885 234.803 11.7095 234.522 11.5689C234.241 11.4283 233.881 11.358 233.442 11.358C232.841 11.358 232.34 11.4964 231.94 11.7734C231.544 12.0462 231.345 12.3935 231.345 12.8153C231.345 13.1903 231.482 13.4865 231.754 13.7038C232.027 13.9212 232.453 14.1023 233.033 14.2472L234.49 14.6051C235.368 14.8182 236.022 15.1442 236.453 15.5831C236.883 16.0178 237.098 16.5781 237.098 17.2642C237.098 17.8267 236.936 18.3295 236.612 18.7727C236.293 19.2159 235.845 19.5653 235.27 19.821C234.695 20.0767 234.026 20.2045 233.263 20.2045C232.262 20.2045 231.433 19.9872 230.776 19.5526C230.12 19.1179 229.705 18.483 229.53 17.6477L230.962 17.2898C231.098 17.8182 231.356 18.2145 231.735 18.4787C232.119 18.7429 232.619 18.875 233.237 18.875C233.941 18.875 234.499 18.7259 234.912 18.4276C235.33 18.125 235.539 17.7628 235.539 17.3409C235.539 17 235.419 16.7145 235.181 16.4844C234.942 16.25 234.575 16.0753 234.081 15.9602L232.445 15.5767C231.546 15.3636 230.885 15.0334 230.463 14.5859C230.046 14.1342 229.837 13.5696 229.837 12.892C229.837 12.3381 229.992 11.848 230.303 11.4219C230.619 10.9957 231.047 10.6612 231.588 10.4183C232.134 10.1754 232.752 10.054 233.442 10.054C234.414 10.054 235.176 10.267 235.73 10.6932C236.289 11.1193 236.685 11.6818 236.919 12.3807ZM243.639 10.1818V11.4602H238.551V10.1818H243.639ZM240.034 7.82955H241.542V17.1875C241.542 17.6136 241.604 17.9332 241.728 18.1463C241.855 18.3551 242.017 18.4957 242.213 18.5682C242.414 18.6364 242.625 18.6705 242.846 18.6705C243.012 18.6705 243.149 18.6619 243.255 18.6449C243.362 18.6236 243.447 18.6065 243.511 18.5938L243.818 19.9489C243.716 19.9872 243.573 20.0256 243.39 20.0639C243.206 20.1065 242.974 20.1278 242.693 20.1278C242.267 20.1278 241.849 20.0362 241.44 19.853C241.035 19.6697 240.699 19.3906 240.43 19.0156C240.166 18.6406 240.034 18.1676 240.034 17.5966V7.82955ZM245.908 20V10.1818H247.417V20H245.908ZM246.675 8.54545C246.381 8.54545 246.127 8.44531 245.914 8.24503C245.706 8.04474 245.601 7.80398 245.601 7.52273C245.601 7.24148 245.706 7.00071 245.914 6.80043C246.127 6.60014 246.381 6.5 246.675 6.5C246.969 6.5 247.221 6.60014 247.429 6.80043C247.642 7.00071 247.749 7.24148 247.749 7.52273C247.749 7.80398 247.642 8.04474 247.429 8.24503C247.221 8.44531 246.969 8.54545 246.675 8.54545ZM254.168 20.2045C253.248 20.2045 252.455 19.9872 251.79 19.5526C251.126 19.1179 250.614 18.5192 250.256 17.7564C249.898 16.9936 249.719 16.1222 249.719 15.142C249.719 14.1449 249.903 13.2649 250.269 12.5021C250.64 11.7351 251.155 11.1364 251.816 10.706C252.481 10.2713 253.256 10.054 254.143 10.054C254.833 10.054 255.455 10.1818 256.009 10.4375C256.563 10.6932 257.017 11.0511 257.371 11.5114C257.724 11.9716 257.944 12.5085 258.029 13.1222H256.52C256.405 12.6747 256.15 12.2784 255.753 11.9332C255.361 11.5838 254.833 11.4091 254.168 11.4091C253.58 11.4091 253.064 11.5625 252.621 11.8693C252.182 12.1719 251.839 12.6001 251.592 13.1541C251.349 13.7038 251.228 14.3494 251.228 15.0909C251.228 15.8494 251.347 16.5099 251.586 17.0724C251.829 17.6349 252.17 18.0717 252.608 18.3828C253.052 18.6939 253.572 18.8494 254.168 18.8494C254.56 18.8494 254.916 18.7812 255.236 18.6449C255.555 18.5085 255.826 18.3125 256.047 18.0568C256.269 17.8011 256.427 17.4943 256.52 17.1364H258.029C257.944 17.7159 257.733 18.2379 257.396 18.7024C257.064 19.1626 256.623 19.5291 256.073 19.8018C255.528 20.0703 254.893 20.2045 254.168 20.2045ZM268.186 20.2301C267.564 20.2301 266.999 20.1129 266.492 19.8786C265.985 19.6399 265.582 19.2969 265.284 18.8494C264.986 18.3977 264.836 17.8523 264.836 17.2131C264.836 16.6506 264.947 16.1946 265.169 15.8452C265.39 15.4915 265.687 15.2145 266.057 15.0142C266.428 14.8139 266.837 14.6648 267.285 14.5668C267.736 14.4645 268.19 14.3835 268.646 14.3239C269.243 14.2472 269.726 14.1896 270.097 14.1513C270.472 14.1087 270.745 14.0384 270.915 13.9403C271.09 13.8423 271.177 13.6719 271.177 13.429V13.3778C271.177 12.7472 271.005 12.2571 270.66 11.9077C270.319 11.5582 269.801 11.3835 269.106 11.3835C268.386 11.3835 267.822 11.5412 267.412 11.8565C267.003 12.1719 266.716 12.5085 266.55 12.8665L265.118 12.3551C265.373 11.7585 265.714 11.294 266.14 10.9616C266.571 10.625 267.04 10.3906 267.547 10.2585C268.058 10.1222 268.561 10.054 269.055 10.054C269.371 10.054 269.733 10.0923 270.142 10.169C270.555 10.2415 270.954 10.3928 271.337 10.6229C271.725 10.853 272.047 11.2003 272.302 11.6648C272.558 12.1293 272.686 12.7514 272.686 13.5312V20H271.177V18.6705H271.101C270.998 18.8835 270.828 19.1115 270.589 19.3544C270.351 19.5973 270.033 19.804 269.637 19.9744C269.241 20.1449 268.757 20.2301 268.186 20.2301ZM268.416 18.875C269.013 18.875 269.515 18.7578 269.925 18.5234C270.338 18.2891 270.649 17.9865 270.858 17.6158C271.071 17.245 271.177 16.8551 271.177 16.446V15.0653C271.113 15.142 270.973 15.2124 270.756 15.2763C270.542 15.3359 270.295 15.3892 270.014 15.4361C269.737 15.4787 269.466 15.517 269.202 15.5511C268.942 15.581 268.731 15.6065 268.569 15.6278C268.177 15.679 267.811 15.7621 267.47 15.8771C267.133 15.9879 266.861 16.1562 266.652 16.3821C266.447 16.6037 266.345 16.9062 266.345 17.2898C266.345 17.8139 266.539 18.2102 266.927 18.4787C267.319 18.7429 267.815 18.875 268.416 18.875ZM275.439 20V10.1818H276.948V20H275.439ZM276.206 8.54545C275.912 8.54545 275.659 8.44531 275.446 8.24503C275.237 8.04474 275.132 7.80398 275.132 7.52273C275.132 7.24148 275.237 7.00071 275.446 6.80043C275.659 6.60014 275.912 6.5 276.206 6.5C276.5 6.5 276.752 6.60014 276.961 6.80043C277.174 7.00071 277.28 7.24148 277.28 7.52273C277.28 7.80398 277.174 8.04474 276.961 8.24503C276.752 8.44531 276.5 8.54545 276.206 8.54545ZM279.711 20V10.1818H281.168V11.6648H281.27C281.449 11.179 281.773 10.7848 282.242 10.4822C282.711 10.1797 283.239 10.0284 283.827 10.0284C283.938 10.0284 284.077 10.0305 284.243 10.0348C284.409 10.0391 284.535 10.0455 284.62 10.054V11.5881C284.569 11.5753 284.452 11.5561 284.268 11.5305C284.089 11.5007 283.9 11.4858 283.699 11.4858C283.222 11.4858 282.796 11.5859 282.421 11.7862C282.05 11.9822 281.756 12.255 281.539 12.6044C281.326 12.9496 281.219 13.3437 281.219 13.7869V20H279.711ZM291.395 10.1818V11.4602H286.103V10.1818H291.395ZM287.688 20V8.8267C287.688 8.2642 287.82 7.79545 288.084 7.42045C288.349 7.04545 288.692 6.7642 289.113 6.5767C289.535 6.3892 289.981 6.29545 290.449 6.29545C290.82 6.29545 291.123 6.32528 291.357 6.38494C291.591 6.4446 291.766 6.5 291.881 6.55114L291.447 7.85511C291.37 7.82954 291.263 7.79758 291.127 7.75923C290.995 7.72088 290.82 7.7017 290.603 7.7017C290.104 7.7017 289.744 7.82741 289.523 8.07884C289.305 8.33026 289.197 8.69886 289.197 9.18466V20H287.688ZM296.118 20.2301C295.495 20.2301 294.931 20.1129 294.424 19.8786C293.917 19.6399 293.514 19.2969 293.216 18.8494C292.917 18.3977 292.768 17.8523 292.768 17.2131C292.768 16.6506 292.879 16.1946 293.1 15.8452C293.322 15.4915 293.618 15.2145 293.989 15.0142C294.36 14.8139 294.769 14.6648 295.216 14.5668C295.668 14.4645 296.122 14.3835 296.578 14.3239C297.174 14.2472 297.658 14.1896 298.029 14.1513C298.404 14.1087 298.676 14.0384 298.847 13.9403C299.022 13.8423 299.109 13.6719 299.109 13.429V13.3778C299.109 12.7472 298.936 12.2571 298.591 11.9077C298.25 11.5582 297.733 11.3835 297.038 11.3835C296.318 11.3835 295.753 11.5412 295.344 11.8565C294.935 12.1719 294.647 12.5085 294.481 12.8665L293.049 12.3551C293.305 11.7585 293.646 11.294 294.072 10.9616C294.502 10.625 294.971 10.3906 295.478 10.2585C295.99 10.1222 296.493 10.054 296.987 10.054C297.302 10.054 297.664 10.0923 298.074 10.169C298.487 10.2415 298.885 10.3928 299.269 10.6229C299.657 10.853 299.978 11.2003 300.234 11.6648C300.49 12.1293 300.618 12.7514 300.618 13.5312V20H299.109V18.6705H299.032C298.93 18.8835 298.76 19.1115 298.521 19.3544C298.282 19.5973 297.965 19.804 297.569 19.9744C297.172 20.1449 296.689 20.2301 296.118 20.2301ZM296.348 18.875C296.944 18.875 297.447 18.7578 297.856 18.5234C298.27 18.2891 298.581 17.9865 298.789 17.6158C299.002 17.245 299.109 16.8551 299.109 16.446V15.0653C299.045 15.142 298.904 15.2124 298.687 15.2763C298.474 15.3359 298.227 15.3892 297.946 15.4361C297.669 15.4787 297.398 15.517 297.134 15.5511C296.874 15.581 296.663 15.6065 296.501 15.6278C296.109 15.679 295.743 15.7621 295.402 15.8771C295.065 15.9879 294.792 16.1562 294.583 16.3821C294.379 16.6037 294.277 16.9062 294.277 17.2898C294.277 17.8139 294.471 18.2102 294.858 18.4787C295.25 18.7429 295.747 18.875 296.348 18.875ZM303.371 20V10.1818H304.828V11.6648H304.931C305.11 11.179 305.433 10.7848 305.902 10.4822C306.371 10.1797 306.899 10.0284 307.487 10.0284C307.598 10.0284 307.737 10.0305 307.903 10.0348C308.069 10.0391 308.195 10.0455 308.28 10.054V11.5881C308.229 11.5753 308.112 11.5561 307.928 11.5305C307.749 11.5007 307.56 11.4858 307.36 11.4858C306.882 11.4858 306.456 11.5859 306.081 11.7862C305.71 11.9822 305.416 12.255 305.199 12.6044C304.986 12.9496 304.879 13.3437 304.879 13.7869V20H303.371ZM313.886 20.2045C312.94 20.2045 312.124 19.9957 311.438 19.5781C310.756 19.1562 310.23 18.5682 309.859 17.8139C309.492 17.0554 309.309 16.1733 309.309 15.1676C309.309 14.1619 309.492 13.2756 309.859 12.5085C310.23 11.7372 310.745 11.1364 311.406 10.706C312.07 10.2713 312.846 10.054 313.732 10.054C314.244 10.054 314.749 10.1392 315.247 10.3097C315.746 10.4801 316.2 10.7571 316.609 11.1406C317.018 11.5199 317.344 12.0227 317.587 12.6491C317.83 13.2756 317.951 14.0469 317.951 14.9631V15.6023H310.383V14.2983H316.417C316.417 13.7443 316.306 13.25 316.085 12.8153C315.867 12.3807 315.556 12.0376 315.151 11.7862C314.751 11.5348 314.278 11.4091 313.732 11.4091C313.132 11.4091 312.612 11.5582 312.173 11.8565C311.738 12.1506 311.404 12.5341 311.169 13.0071C310.935 13.4801 310.818 13.9872 310.818 14.5284V15.3977C310.818 16.1392 310.945 16.7678 311.201 17.2834C311.461 17.7947 311.821 18.1847 312.281 18.4531C312.742 18.7173 313.276 18.8494 313.886 18.8494C314.282 18.8494 314.64 18.794 314.96 18.6832C315.284 18.5682 315.563 18.3977 315.797 18.1719C316.031 17.9418 316.213 17.6562 316.34 17.3153L317.798 17.7244C317.644 18.2188 317.387 18.6534 317.024 19.0284C316.662 19.3991 316.215 19.6889 315.682 19.8977C315.149 20.1023 314.551 20.2045 313.886 20.2045ZM321.345 20.1023C321.03 20.1023 320.759 19.9893 320.534 19.7635C320.308 19.5376 320.195 19.267 320.195 18.9517C320.195 18.6364 320.308 18.3658 320.534 18.1399C320.759 17.9141 321.03 17.8011 321.345 17.8011C321.661 17.8011 321.931 17.9141 322.157 18.1399C322.383 18.3658 322.496 18.6364 322.496 18.9517C322.496 19.1605 322.443 19.3523 322.336 19.527C322.234 19.7017 322.095 19.8423 321.921 19.9489C321.75 20.0511 321.558 20.1023 321.345 20.1023Z" fill="#2C2727"/>
</svg>
