<svg width="20" height="20" viewBox="0 0 20 20" fill="none" xmlns="http://www.w3.org/2000/svg">
<path d="M9.11038 9.99999L5.09798 5.16593C4.9821 5.0249 4.96901 4.87852 5.0587 4.72677C5.14839 4.57503 5.29241 4.49944 5.49077 4.5C5.56933 4.5 5.64429 4.5158 5.71565 4.54739C5.787 4.57954 5.84232 4.62382 5.8816 4.68023L10.3084 9.99999L5.8816 15.3198C5.84167 15.3762 5.78602 15.4204 5.71467 15.4526C5.64331 15.4848 5.56737 15.5005 5.48684 15.5C5.29568 15.5 5.15395 15.4244 5.06164 15.2732C4.96999 15.122 4.9821 14.9759 5.09798 14.8349L9.11038 9.99999ZM14.803 9.99999L10.7896 5.16593C10.6737 5.0249 10.6606 4.87852 10.7503 4.72677C10.84 4.57503 10.984 4.49944 11.1824 4.5C11.2609 4.5 11.3359 4.5158 11.4072 4.54739C11.4786 4.57954 11.5339 4.62382 11.5732 4.68023L16 9.99999L11.5732 15.3198C11.5333 15.3762 11.4776 15.4204 11.4063 15.4526C11.3349 15.4848 11.259 15.5005 11.1784 15.5C10.9873 15.5 10.8455 15.4244 10.7532 15.2732C10.6616 15.122 10.6737 14.9759 10.7896 14.8349L14.803 9.99999Z" fill="white"/>
</svg>
