<svg width="25" height="24" viewBox="0 0 25 24" fill="none" xmlns="http://www.w3.org/2000/svg">
<path d="M12.6667 1.5C8.52628 1.5 5.16675 4.52391 5.16675 8.25C5.16675 14.25 12.6667 22.5 12.6667 22.5C12.6667 22.5 20.1667 14.25 20.1667 8.25C20.1667 4.52391 16.8072 1.5 12.6667 1.5ZM12.6667 12C12.0734 12 11.4934 11.8241 11 11.4944C10.5067 11.1648 10.1222 10.6962 9.89511 10.1481C9.66805 9.59987 9.60864 8.99667 9.72439 8.41473C9.84015 7.83279 10.1259 7.29824 10.5454 6.87868C10.965 6.45912 11.4995 6.1734 12.0815 6.05764C12.6634 5.94189 13.2666 6.0013 13.8148 6.22836C14.363 6.45542 14.8315 6.83994 15.1612 7.33329C15.4908 7.82664 15.6667 8.40666 15.6667 9C15.6659 9.79538 15.3495 10.5579 14.7871 11.1204C14.2247 11.6828 13.4621 11.9991 12.6667 12Z" fill="#2C2727"/>
</svg>
