<svg width="22" height="22" viewBox="0 0 22 22" fill="none" xmlns="http://www.w3.org/2000/svg">
<g clip-path="url(#clip0_958_1683)">
<path d="M6 12.258V1L17.9916 5.78464C18.8599 6.12238 18.8599 7.11684 17.9916 7.45458L6 12.258Z" fill="#F05A28"/>
<path d="M18.194 22H2.80597C1.54738 22 0.668738 21.0762 1.11993 20.2221L3.3759 15.7074C3.63711 15.1845 4.30203 14.8359 5.06193 14.8359H15.9143C16.6742 14.8359 17.3391 15.1845 17.6004 15.7074L19.8801 20.2221C20.3313 21.0762 19.4526 22 18.194 22Z" fill="#F05A28"/>
<path d="M7.0124 18C6.72923 18 6.5 17.7178 6.5 17.3691V1.53125C6.5 1.23242 6.70227 1 6.9315 1H7.06634C7.30906 1 7.49784 1.24902 7.49784 1.53125V17.3857C7.52481 17.7344 7.29558 18 7.0124 18ZM6.94498 1.39844C6.89105 1.39844 6.83711 1.44824 6.83711 1.53125V17.3857C6.83711 17.502 6.88246 16.9557 6.96337 16.9557C7.04428 16.9557 6.83711 17.4688 6.83711 17.3691V13.4314V9.4585V5.53368V1.53125C6.83711 1.46484 6.86919 1.39844 6.80177 1.39844H6.94498Z" fill="white"/>
<path d="M6.39051 19.0128C6.03654 19.0128 5.75 18.6971 5.75 18.3072V0.594149C5.75 0.25994 6.00283 0 6.28937 0H6.45793C6.76133 0 6.9973 0.278507 6.9973 0.594149V18.3258C7.03101 18.7157 6.74447 19.0128 6.39051 19.0128ZM6.30623 0.445612C6.23881 0.445612 6.17139 0.501313 6.17139 0.594149V18.3258C6.17139 18.4558 6.22808 17.8448 6.32921 17.8448C6.43035 17.8448 6.17139 18.4186 6.17139 18.3072V13.9032V9.45997V5.07046V0.594149C6.17139 0.51988 6.21149 0.445612 6.12721 0.445612H6.30623Z" fill="#F7A67A"/>
</g>
<defs>
<clipPath id="clip0_958_1683">
<rect width="22" height="22" fill="white"/>
</clipPath>
</defs>
</svg>
