<svg width="22" height="24" viewBox="0 0 22 24" fill="none" xmlns="http://www.w3.org/2000/svg">
<path d="M2.50002 11.5C2.50002 11.8315 2.63172 12.1495 2.86614 12.3839C3.10056 12.6183 3.4185 12.75 3.75002 12.75L13.65 12.75L10.3667 16.0333C10.1459 16.2703 10.0257 16.5837 10.0314 16.9075C10.0371 17.2314 10.1683 17.5404 10.3973 17.7694C10.6263 17.9984 10.9353 18.1296 11.2592 18.1353C11.583 18.141 11.8964 18.0208 12.1334 17.8L17.55 12.3833C17.7841 12.149 17.9156 11.8313 17.9156 11.5C17.9156 11.1688 17.7841 10.8511 17.55 10.6167L12.1334 5.20001C11.8964 4.97921 11.583 4.85901 11.2592 4.86472C10.9353 4.87043 10.6263 5.00162 10.3973 5.23064C10.1683 5.45967 10.0371 5.76864 10.0314 6.09247C10.0257 6.41631 10.1459 6.72972 10.3667 6.96668L13.65 10.25L3.75002 10.25C3.4185 10.25 3.10056 10.3817 2.86614 10.6161C2.63172 10.8505 2.50002 11.1685 2.50002 11.5Z" fill="#F05A28"/>
</svg>
