<svg width="22" height="23" viewBox="0 0 22 23" fill="none" xmlns="http://www.w3.org/2000/svg">
<path d="M2.49996 11C2.49996 11.3315 2.63166 11.6495 2.86608 11.8839C3.1005 12.1183 3.41844 12.25 3.74996 12.25L13.65 12.25L10.3666 15.5333C10.1458 15.7703 10.0256 16.0837 10.0313 16.4075C10.037 16.7314 10.1682 17.0404 10.3973 17.2694C10.6263 17.4984 10.9353 17.6296 11.2591 17.6353C11.5829 17.641 11.8963 17.5208 12.1333 17.3L17.55 11.8833C17.784 11.649 17.9155 11.3313 17.9155 11C17.9155 10.6688 17.784 10.3511 17.55 10.1167L12.1333 4.70001C11.8963 4.47921 11.5829 4.35901 11.2591 4.36472C10.9353 4.37043 10.6263 4.50162 10.3973 4.73064C10.1682 4.95967 10.037 5.26864 10.0313 5.59247C10.0256 5.91631 10.1458 6.22972 10.3666 6.46668L13.65 9.75001L3.74996 9.75001C3.41844 9.75001 3.1005 9.88171 2.86608 10.1161C2.63166 10.3505 2.49996 10.6685 2.49996 11Z" fill="#833419"/>
</svg>
