<svg width="26" height="20" viewBox="0 0 26 20" fill="none" xmlns="http://www.w3.org/2000/svg">
<path d="M4.33319 11.125C3.99037 11.125 3.65525 11.213 3.3702 11.3778C3.08515 11.5426 2.86299 11.7769 2.7318 12.051C2.6006 12.3251 2.56628 12.6267 2.63316 12.9176C2.70004 13.2086 2.86513 13.4759 3.10754 13.6857C3.34995 13.8954 3.6588 14.0383 3.99503 14.0962C4.33127 14.1541 4.67978 14.1244 4.99651 14.0108C5.31323 13.8973 5.58394 13.705 5.7744 13.4584C5.96486 13.2117 6.06652 12.9217 6.06652 12.625C6.06652 12.2272 5.8839 11.8456 5.55884 11.5643C5.23378 11.283 4.7929 11.125 4.33319 11.125ZM4.33319 13.375C4.16178 13.375 3.99422 13.331 3.85169 13.2486C3.70917 13.1662 3.59809 13.0491 3.53249 12.912C3.4669 12.775 3.44973 12.6242 3.48317 12.4787C3.51661 12.3332 3.59916 12.1996 3.72036 12.0947C3.84157 11.9898 3.99599 11.9184 4.16411 11.8894C4.33223 11.8605 4.50648 11.8753 4.66485 11.9321C4.82321 11.9889 4.95856 12.085 5.0538 12.2083C5.14903 12.3317 5.19986 12.4767 5.19986 12.625C5.19986 12.8239 5.10855 13.0147 4.94601 13.1553C4.78348 13.296 4.56304 13.375 4.33319 13.375Z" fill="white"/>
<path d="M21.6667 11.125C21.3239 11.125 20.9887 11.213 20.7037 11.3778C20.4186 11.5426 20.1965 11.7769 20.0653 12.051C19.9341 12.3251 19.8998 12.6267 19.9667 12.9176C20.0335 13.2086 20.1986 13.4759 20.441 13.6857C20.6834 13.8954 20.9923 14.0383 21.3285 14.0962C21.6648 14.1541 22.0133 14.1244 22.33 14.0108C22.6467 13.8973 22.9174 13.705 23.1079 13.4584C23.2983 13.2117 23.4 12.9217 23.4 12.625C23.4 12.2272 23.2174 11.8456 22.8923 11.5643C22.5673 11.283 22.1264 11.125 21.6667 11.125ZM21.6667 13.375C21.4953 13.375 21.3277 13.331 21.1852 13.2486C21.0427 13.1662 20.9316 13.0491 20.866 12.912C20.8004 12.775 20.7832 12.6242 20.8167 12.4787C20.8501 12.3332 20.9326 12.1996 21.0539 12.0947C21.1751 11.9898 21.3295 11.9184 21.4976 11.8894C21.6657 11.8605 21.84 11.8753 21.9983 11.9321C22.1567 11.9889 22.2921 12.085 22.3873 12.2083C22.4825 12.3317 22.5333 12.4767 22.5333 12.625C22.5333 12.8239 22.442 13.0147 22.2795 13.1553C22.117 13.296 21.8965 13.375 21.6667 13.375Z" fill="white"/>
<path d="M9.1001 13H16.9001V13.75H9.1001V13Z" fill="white"/>
<path d="M9.1001 11.5H16.9001V12.25H9.1001V11.5Z" fill="white"/>
<path d="M11.7 5.875H14.3V6.625H11.7V5.875Z" fill="white"/>
<path d="M26 9.25V8.5C25.999 8.20191 25.8617 7.91627 25.6181 7.70549C25.3745 7.4947 25.0445 7.37589 24.7 7.375H22.984L22.087 4.6525L21.8183 3.72625C21.7478 3.48304 21.5855 3.26719 21.357 3.11296C21.1285 2.95874 20.8471 2.87499 20.5573 2.875H16.9V1.375C16.8993 1.17627 16.8078 0.985849 16.6454 0.845326C16.483 0.704802 16.263 0.625594 16.0333 0.625H9.96667C9.73702 0.625594 9.51698 0.704802 9.3546 0.845326C9.19221 0.985849 9.10069 1.17627 9.1 1.375V2.875H5.44267C5.15292 2.87499 4.87147 2.95874 4.64301 3.11296C4.41455 3.26719 4.25217 3.48304 4.18167 3.72625L3.91733 4.64875L3.016 7.375H1.3C0.955535 7.37589 0.625472 7.4947 0.381898 7.70549C0.138323 7.91627 0.00102877 8.20191 0 8.5V9.25C0.000701757 9.43997 0.0571309 9.62668 0.163998 9.79262C0.270866 9.95856 0.424672 10.0983 0.611 10.1987C0.219267 10.5471 5.39972e-05 11.0139 0 11.5V16C0.00059741 16.1573 0.0394957 16.3128 0.11416 16.4562C0.188824 16.5996 0.297578 16.7279 0.433333 16.8325V18.25C0.434362 18.5481 0.571656 18.8337 0.815231 19.0445C1.05881 19.2553 1.38887 19.3741 1.73333 19.375H5.2C5.54447 19.3741 5.87453 19.2553 6.1181 19.0445C6.36168 18.8337 6.49897 18.5481 6.5 18.25V17.125H19.5V18.25C19.501 18.5481 19.6383 18.8337 19.8819 19.0445C20.1255 19.2553 20.4555 19.3741 20.8 19.375H24.2667C24.6111 19.3741 24.9412 19.2553 25.1848 19.0445C25.4283 18.8337 25.5656 18.5481 25.5667 18.25V16.8325C25.7024 16.7279 25.8112 16.5996 25.8858 16.4562C25.9605 16.3128 25.9994 16.1573 26 16V11.5C25.9999 11.0139 25.7807 10.5471 25.389 10.1987C25.5753 10.0983 25.7291 9.95856 25.836 9.79262C25.9429 9.62668 25.9993 9.43997 26 9.25ZM9.96667 1.375H16.0333V2.875H9.96667V1.375ZM5.02233 3.91C5.04556 3.8287 5.09957 3.75647 5.17575 3.70481C5.25192 3.65316 5.34589 3.62506 5.44267 3.625H20.5573C20.6541 3.62506 20.7481 3.65316 20.8243 3.70481C20.9004 3.75647 20.9544 3.8287 20.9777 3.91L21.112 4.375H4.888L5.02233 3.91ZM4.65833 5.125H21.3417L22.8237 9.625H10.361C10.2592 9.10094 9.946 8.62507 9.47715 8.28187C9.0083 7.93867 8.41408 7.75036 7.8 7.75036C7.18592 7.75036 6.5917 7.93867 6.12285 8.28187C5.654 8.62507 5.34085 9.10094 5.239 9.625H3.17633L4.65833 5.125ZM9.47267 9.625H6.12733C6.22195 9.30322 6.43776 9.0179 6.74067 8.81412C7.04358 8.61033 7.41632 8.49969 7.8 8.49969C8.18368 8.49969 8.55642 8.61033 8.85933 8.81412C9.16224 9.0179 9.37805 9.30322 9.47267 9.625ZM0.866667 8.5C0.866667 8.40054 0.912321 8.30516 0.993587 8.23483C1.07485 8.16451 1.18507 8.125 1.3 8.125H2.769L2.275 9.625H1.3C1.18507 9.625 1.07485 9.58549 0.993587 9.51517C0.912321 9.44484 0.866667 9.34946 0.866667 9.25V8.5ZM5.63333 18.25C5.63333 18.3495 5.58768 18.4448 5.50641 18.5152C5.42515 18.5855 5.31493 18.625 5.2 18.625H1.73333C1.61841 18.625 1.50819 18.5855 1.42692 18.5152C1.34565 18.4448 1.3 18.3495 1.3 18.25V17.125H5.63333V18.25ZM24.7 18.25C24.7 18.3495 24.6543 18.4448 24.5731 18.5152C24.4918 18.5855 24.3816 18.625 24.2667 18.625H20.8C20.6851 18.625 20.5749 18.5855 20.4936 18.5152C20.4123 18.4448 20.3667 18.3495 20.3667 18.25V17.125H24.7V18.25ZM25.1333 16C25.1333 16.0995 25.0877 16.1948 25.0064 16.2652C24.9251 16.3355 24.8149 16.375 24.7 16.375H1.3C1.18507 16.375 1.07485 16.3355 0.993587 16.2652C0.912321 16.1948 0.866667 16.0995 0.866667 16V15.625H25.1333V16ZM25.1333 14.875H0.866667V11.5C0.867695 11.2019 1.00499 10.9163 1.24856 10.7055C1.49214 10.4947 1.8222 10.3759 2.16667 10.375H23.8333C24.1778 10.3759 24.5079 10.4947 24.7514 10.7055C24.995 10.9163 25.1323 11.2019 25.1333 11.5V14.875ZM25.1333 9.25C25.1333 9.34946 25.0877 9.44484 25.0064 9.51517C24.9251 9.58549 24.8149 9.625 24.7 9.625H23.725L23.231 8.125H24.7C24.8149 8.125 24.9251 8.16451 25.0064 8.23483C25.0877 8.30516 25.1333 8.40054 25.1333 8.5V9.25Z" fill="white"/>
</svg>
