<svg width="16" height="12" viewBox="0 0 16 12" fill="none" xmlns="http://www.w3.org/2000/svg">
<path d="M16 1.56495H0V1.03442C0 0.882076 0.123531 0.758545 0.275874 0.758545H15.7241C15.8765 0.758545 16 0.882076 16 1.03442L16 1.56495Z" fill="#D02932"/>
<path d="M16 3.98413H0V4.79051H16V3.98413Z" fill="#D02932"/>
<path d="M16 2.37134H0V3.17771H16V2.37134Z" fill="#D02932"/>
<path d="M16 6.40308H0.275874C0.123531 6.40308 0 6.27955 0 6.12721V5.59668H16V6.40308Z" fill="#D02932"/>
<path d="M16 8.82251H0V9.62888H16V8.82251Z" fill="#D02932"/>
<path d="M15.7241 11.2414H0.275874C0.123531 11.2414 0 11.1179 0 10.9656V10.4351H16V10.9656C16 11.1179 15.8764 11.2414 15.7241 11.2414Z" fill="#D02932"/>
<path d="M16 7.20972H0V8.01609H16V7.20972Z" fill="#D02932"/>
</svg>
