<svg width="28" height="29" viewBox="0 0 28 29" fill="none" xmlns="http://www.w3.org/2000/svg">
<path d="M0 28.5L1.97005 21.312C0.758736 19.2088 0.113145 16.8195 0.1198 14.3769C0.1198 6.72296 6.34942 0.5 14.0033 0.5C17.7171 0.5 21.2047 1.94426 23.8203 4.56656C26.4426 7.18885 27.8869 10.6764 27.8802 14.3835C27.8802 22.0374 21.6506 28.2604 13.9967 28.2604H13.99C11.6672 28.2604 9.38436 27.6747 7.35441 26.5699L0 28.5ZM7.7005 24.0541L8.1198 24.307C9.89018 25.3586 11.9201 25.911 13.99 25.9176H13.9967C20.3527 25.9176 25.5308 20.7463 25.5308 14.3835C25.5308 11.302 24.3328 8.40682 22.1564 6.22379C19.98 4.04077 17.0782 2.84276 13.9967 2.84276C7.63394 2.84276 2.45591 8.01414 2.45591 14.3769C2.45591 16.5532 3.06156 18.6764 4.21963 20.5133L4.49251 20.9526L3.32779 25.2055L7.7005 24.0541Z" fill="black" fill-opacity="0.24"/>
<path d="M0.629852 27.758L2.50972 20.9024C1.35288 18.8976 0.741593 16.6168 0.741593 14.29C0.741593 6.99401 6.68355 1.05864 13.973 1.05864C17.5158 1.05864 20.8351 2.43896 23.3328 4.93668C25.8306 7.4344 27.2043 10.7603 27.2043 14.2966C27.2043 21.5925 21.2624 27.5279 13.973 27.5279H13.9664C11.7513 27.5279 9.57565 26.9692 7.6432 25.9176L0.629852 27.758Z" fill="#2C2727"/>
<path d="M0.14975 28.2379L2.09534 21.1391C0.899067 19.062 0.26149 16.7023 0.268063 14.2901C0.268063 6.73116 6.42035 0.585448 13.9792 0.585448C17.647 0.585448 21.0912 2.01178 23.6744 4.60152C26.2641 7.19127 27.6904 10.6355 27.6839 14.2966C27.6839 21.8555 21.5316 28.0012 13.9727 28.0012H13.9661C11.6721 28.0012 9.41762 27.4228 7.41287 26.3317L0.14975 28.2379ZM7.75466 23.8471L8.16876 24.0969C9.91716 25.1354 11.9219 25.681 13.9661 25.6876H13.9727C20.2498 25.6876 25.3636 20.5804 25.3636 14.2966C25.3636 11.2534 24.1805 8.39412 22.0311 6.23819C19.8818 4.08226 17.016 2.89913 13.9727 2.89913C7.68893 2.89913 2.57517 8.00631 2.57517 14.2901C2.57517 16.4394 3.17331 18.5362 4.317 20.3503L4.58649 20.7841L3.43623 24.9843L7.75466 23.8471Z" fill="white"/>
<path d="M10.5487 8.55196C10.2924 7.98011 10.0229 7.96696 9.77967 7.96039C9.58248 7.95382 9.35242 7.95382 9.12237 7.95382C8.89232 7.95382 8.52423 8.03927 8.20873 8.38106C7.89323 8.72285 7.01245 9.55105 7.01245 11.2403C7.01245 12.923 8.24159 14.5531 8.41249 14.7831C8.58339 15.0132 10.7853 18.5823 14.2624 19.956C17.1545 21.0997 17.7461 20.8697 18.3705 20.8105C19.0015 20.7514 20.395 19.9823 20.6842 19.1804C20.9668 18.3785 20.9668 17.6949 20.8814 17.5503C20.7959 17.4057 20.5659 17.3203 20.2241 17.1494C19.8823 16.9785 18.1996 16.1503 17.8841 16.032C17.5686 15.9137 17.3386 15.8611 17.1151 16.2029C16.885 16.5447 16.2277 17.3137 16.0305 17.5438C15.8334 17.7738 15.6296 17.8001 15.2878 17.6292C14.946 17.4583 13.8418 17.0968 12.5337 15.9268C11.5149 15.0197 10.8248 13.8958 10.6276 13.554C10.4304 13.2122 10.6079 13.0281 10.7788 12.8572C10.9299 12.7061 11.1205 12.4563 11.2914 12.2591C11.4623 12.0619 11.5215 11.9173 11.6332 11.6873C11.745 11.4572 11.6924 11.26 11.6069 11.0891C11.5215 10.9182 10.8511 9.22897 10.5487 8.55196Z" fill="white"/>
</svg>
